HIERARCHY
ROOT pelvis
{
	OFFSET 0.00 0.00 0.00
	CHANNELS 6 Xposition Yposition Zposition Xrotation Yrotation Zrotation
	JOINT lfemur
	{
		OFFSET 0.00000 4.00987 0.00000
		CHANNELS 3 Xrotation Yrotation Zrotation
		JOINT ltibia
		{
			OFFSET 0.00000 0.00000 -16.96567
			CHANNELS 3 Xrotation Yrotation Zrotation
			JOINT lfoot
			{
				OFFSET 0.00000 0.00000 -15.14977
				CHANNELS 3 Xrotation Yrotation Zrotation
				JOINT ltoes
				{
					OFFSET 4.80706 0.00000 -0.34192
					CHANNELS 3 Xrotation Yrotation Zrotation
				}
			}
		}
	}
	JOINT rfemur
	{
		OFFSET 0.00000 -4.00987 0.00000
		CHANNELS 3 Xrotation Yrotation Zrotation
		JOINT rtibia
		{
			OFFSET 0.00000 0.00000 -17.37260
			CHANNELS 3 Xrotation Yrotation Zrotation
			JOINT rfoot
			{
				OFFSET 0.00000 0.00000 -14.74017
				CHANNELS 3 Xrotation Yrotation Zrotation
				JOINT rtoes
				{
					OFFSET 4.34786 0.00000 -1.10103
					CHANNELS 3 Xrotation Yrotation Zrotation
				}
			}
		}
	}
	JOINT lowerback
	{
		OFFSET -1.96850 0.00000 4.19271
		CHANNELS 3 Xrotation Yrotation Zrotation
		JOINT upperback
		{
			OFFSET 0.46383 0.00000 7.28365
			CHANNELS 3 Xrotation Yrotation Zrotation
			JOINT lclavicle
			{
				OFFSET 0.00000 0.00000 8.84290
				CHANNELS 3 Xrotation Yrotation Zrotation
				JOINT lhumerus
				{
					OFFSET 0.00000 5.32652 -2.91730
					CHANNELS 3 Xrotation Yrotation Zrotation
					JOINT lradius
					{
						OFFSET 0.00000 0.00000 -11.04679
						CHANNELS 3 Xrotation Yrotation Zrotation
						JOINT lhand
						{
							OFFSET 0.00000 0.00000 -7.95329
							CHANNELS 3 Xrotation Yrotation Zrotation
						}
					}
				}
			}
			JOINT rclavicle
			{
				OFFSET 0.00000 0.00000 8.84290
				CHANNELS 3 Xrotation Yrotation Zrotation
				JOINT rhumerus
				{
					OFFSET 0.00000 -5.91097 -2.78771
					CHANNELS 3 Xrotation Yrotation Zrotation
					JOINT rradius
					{
						OFFSET 0.00000 0.00000 -11.28954
						CHANNELS 3 Xrotation Yrotation Zrotation
						JOINT rhand
						{
							OFFSET 0.00000 0.00000 -7.95361
							CHANNELS 3 Xrotation Yrotation Zrotation
						}
					}
				}
			}
			JOINT LowerNeck
			{
				OFFSET 0.00000 0.00000 8.84290
				CHANNELS 3 Xrotation Yrotation Zrotation
				JOINT Neck
				{
					OFFSET -0.14998 -1.07471 3.07123
					CHANNELS 3 Xrotation Yrotation Zrotation
				}
			}
		}
	}
}
MOTION
Frames: 23
Frame Time: 0.008342
 -1.4293 -103.0352 34.5938 8.3977 -1.8561 86.9923 -0.9381 7.0383 -9.5328 -0.0000 9.3351 24.3390 -0.0909 -0.8278 -0.3406 0.0000 -13.3420 0.0000 4.4990 8.2109 20.0001 0.0000 8.1856 -31.6281 0.9968 -6.6138 3.8130 0.0000 -4.3927 -0.0000 -0.2201 -3.5520 0.6787 1.2584 30.5302 0.2623 0.1858 -0.0000 -3.0198 15.1724 -25.4531 -13.3972 -0.0000 -10.6551 -23.5571 -10.4694 -3.7793 -0.0000 2.9492 0.0000 5.3068 -16.9313 -23.0175 13.5229 0.0000 -19.5409 16.2161 -0.9763 1.4933 -0.0000 3.0852 -4.2991 2.7574 -6.7670 -38.3722 -11.4588
 -1.4293 -103.0352 34.5938 8.3977 -1.8561 86.9923 -0.9381 7.0383 -9.5328 -0.0000 9.3351 24.3390 -0.0909 -0.8278 -0.3406 0.0000 -13.3420 0.0000 4.4990 8.2109 20.0001 0.0000 8.1856 -31.6281 0.9968 -6.6138 3.8130 0.0000 -4.3927 -0.0000 -0.2201 -3.5520 0.6787 1.2584 30.5302 0.2623 0.1858 -0.0000 -3.0198 15.1724 -25.4531 -13.3972 -0.0000 -10.6551 -23.5571 -10.4694 -3.7793 -0.0000 2.9492 0.0000 5.3068 -16.9313 -23.0175 13.5229 0.0000 -19.5409 16.2161 -0.9763 1.4933 -0.0000 3.0852 -4.2991 2.7574 -6.7670 -38.3722 -11.4588
 -1.4347 -103.0286 34.5921 8.4097 -1.8590 87.0105 -0.9481 7.0699 -9.6219 0.0000 9.3216 24.4031 -0.0876 -0.8620 -0.3282 0.0000 -13.2594 0.0000 4.4915 8.2322 19.9485 0.0000 8.1891 -31.6693 1.0175 -6.6402 3.8926 -0.0000 -4.4096 -0.0000 -0.1861 -3.5553 0.6601 1.2716 30.5782 0.2257 0.1791 0.0000 -2.9838 15.1571 -25.4534 -13.3318 0.0000 -10.6374 -23.7294 -10.4118 -3.9482 0.0000 2.7609 0.0000 5.3161 -16.8755 -22.9931 14.1262 -0.0000 -19.7427 15.3949 -0.7501 1.5894 0.0000 2.9346 -4.2931 2.6481 -6.6147 -38.4669 -11.2805
 -1.4357 -103.0239 34.5898 8.4730 -1.8539 87.0099 -0.9577 7.1442 -9.5937 -0.0000 9.3195 24.4031 -0.0942 -0.8900 -0.3530 0.0000 -13.3151 0.0000 4.4761 8.2964 19.9508 0.0000 8.1805 -31.7959 1.0658 -6.5973 4.0775 -0.0000 -4.9206 -0.0000 -0.1687 -3.5634 0.7212 1.4529 30.7924 0.0321 0.1388 0.0000 -2.9386 15.1472 -25.5389 -13.0342 -0.0000 -10.6965 -23.8866 -10.5568 -4.1252 -0.0000 2.7272 -0.0000 4.7594 -16.8129 -23.5460 15.0619 -0.0000 -19.6749 14.8703 -0.3701 1.7143 -0.0000 2.2331 -4.3682 2.1170 -5.6246 -38.6789 -10.5730
 -1.4349 -103.0125 34.5939 8.4924 -1.8787 87.0775 -0.9254 7.2018 -9.7277 0.0000 9.2695 24.4131 -0.0787 -0.8704 -0.2950 -0.0000 -13.2590 -0.0000 4.5026 8.3574 19.6855 0.0000 8.1559 -31.5226 1.0277 -6.6237 3.9314 0.0000 -4.4450 -0.0000 -0.1973 -3.5454 0.6231 1.4112 30.6951 0.1817 0.1391 0.0000 -3.0271 15.1362 -25.4646 -13.0918 0.0000 -10.6248 -23.8268 -10.3333 -4.0770 -0.0000 2.2591 -0.0000 5.4323 -16.6870 -23.0426 15.8044 0.0000 -19.6621 13.2219 -1.1301 1.4753 0.0000 2.5225 -4.2035 2.2940 -6.0574 -38.7103 -10.8541
 -1.4346 -103.0114 34.5935 8.5401 -1.8779 87.1219 -0.9194 7.2419 -9.7226 0.0000 9.2793 24.3801 -0.0844 -0.8731 -0.3161 -0.0000 -13.3934 -0.0000 4.5187 8.4097 19.7624 0.0000 8.1667 -31.5649 1.0025 -6.6500 3.8355 0.0000 -4.4660 -0.0000 -0.2067 -3.4898 0.6102 1.4884 30.7690 0.0329 0.1260 0.0000 -2.9216 15.1356 -25.4988 -13.0146 0.0000 -10.6778 -23.8611 -10.3938 -4.1540 -0.0000 2.7328 0.0000 4.7555 -16.8306 -23.4951 15.1462 -0.0000 -19.7528 14.8710 -0.2670 1.7566 0.0000 2.3565 -4.2400 2.1897 -5.8553 -38.8534 -10.6400
 -1.4343 -103.0045 34.5960 8.5511 -1.8868 87.1132 -0.9119 7.2793 -9.7344 -0.0000 9.2509 24.4003 -0.0840 -0.8655 -0.3148 0.0000 -13.3963 -0.0000 4.5103 8.4595 19.7248 0.0000 8.0939 -31.5266 1.0067 -6.6158 3.8509 -0.0000 -4.4645 -0.0000 -0.2197 -3.4864 0.5977 1.3976 30.7141 0.2152 0.1609 -0.0000 -3.0144 15.1015 -25.4916 -13.1232 0.0000 -10.5919 -23.7249 -10.2412 -4.0654 0.0000 2.5041 0.0000 5.3085 -16.7979 -22.9270 14.6951 -0.0000 -20.0718 14.6527 -0.5774 1.6822 -0.0000 2.5567 -4.1345 2.3795 -6.1198 -38.8736 -10.9281
 -1.4358 -103.0082 34.5953 8.5740 -1.8835 87.0909 -0.9251 7.2967 -9.7291 0.0000 9.2545 24.3895 -0.0783 -0.8673 -0.2933 -0.0000 -13.3357 -0.0000 4.5123 8.4681 19.8126 0.0000 8.1160 -31.4905 0.9749 -6.5869 3.7290 -0.0000 -4.4613 -0.0000 -0.1924 -3.4266 0.6726 1.4624 30.7461 0.0569 0.1489 -0.0000 -2.9611 15.0991 -25.4771 -13.0356 0.0000 -10.6975 -23.7484 -10.1767 -4.0754 -0.0000 2.7160 0.0000 4.8029 -16.8539 -23.4334 15.3259 -0.0000 -19.8033 14.7143 -0.5223 1.7472 -0.0000 2.3541 -4.1859 2.1751 -5.8201 -38.9559 -10.5921
 -1.4357 -103.0002 34.5959 8.5829 -1.8931 87.1191 -0.9128 7.3172 -9.7600 0.0000 9.2619 24.3523 -0.0731 -0.8962 -0.2738 0.0000 -13.3605 -0.0000 4.5212 8.4961 19.7074 0.0000 8.1174 -31.4441 0.9775 -6.6508 3.7396 -0.0000 -4.6937 0.0000 -0.1931 -3.4493 0.6457 1.4396 30.7655 0.1209 0.1446 0.0000 -2.9725 15.0778 -25.5078 -13.0575 0.0000 -10.5703 -23.9135 -10.0865 -4.1986 -0.0000 2.7200 -0.0000 4.8480 -16.8825 -23.3539 15.1742 -0.0000 -19.8650 14.6838 -0.4011 1.7133 -0.0000 2.3884 -4.1384 2.2280 -5.8933 -39.0014 -10.6873
 -1.4381 -103.0007 34.5959 8.5783 -1.8938 87.0741 -0.9274 7.3205 -9.7634 0.0000 9.2525 24.3524 -0.0562 -0.8634 -0.2106 0.0000 -13.4774 -0.0000 4.5211 8.4956 19.8719 0.0000 8.1096 -31.4337 0.9382 -6.6357 3.5889 0.0000 -4.5986 -0.0000 -0.1901 -3.4074 0.6700 1.3615 30.7143 0.2603 0.1594 -0.0000 -2.9895 15.0330 -25.5390 -13.2228 0.0000 -10.5487 -23.7660 -9.9614 -4.0090 0.0000 2.5226 -0.0000 5.1700 -16.8045 -23.0084 14.9164 -0.0000 -20.0967 14.6076 -0.6570 1.7215 -0.0000 2.5703 -4.1875 2.3286 -6.1367 -38.9419 -10.8571
 -1.4355 -103.0005 34.5941 8.5860 -1.8951 87.0950 -0.9169 7.3269 -9.7591 0.0000 9.2441 24.3449 -0.0624 -0.8726 -0.2340 0.0000 -13.4776 -0.0000 4.5211 8.4963 19.7488 0.0000 8.1003 -31.4877 0.9886 -6.5560 3.7812 0.0000 -4.5969 -0.0000 -0.1963 -3.3941 0.6908 1.4409 30.7229 0.0672 0.1575 -0.0000 -2.9674 15.0508 -25.4474 -12.9782 0.0000 -10.6093 -23.9614 -9.9701 -3.9860 -0.0000 2.7309 0.0000 4.8622 -16.8910 -23.3867 15.2918 0.0000 -19.8457 14.6589 -0.4363 1.7381 0.0000 2.3942 -4.0418 2.2584 -5.8834 -39.1530 -10.6103
 -1.4355 -103.0005 34.5941 8.5860 -1.8951 87.0950 -0.9169 7.3269 -9.7591 0.0000 9.2441 24.3449 -0.0624 -0.8726 -0.2340 0.0000 -13.4776 -0.0000 4.5211 8.4963 19.7488 0.0000 8.1003 -31.4877 0.9886 -6.5560 3.7812 0.0000 -4.5969 -0.0000 -0.1963 -3.3941 0.6908 1.4409 30.7229 0.0672 0.1575 -0.0000 -2.9674 15.0508 -25.4474 -12.9782 0.0000 -10.6093 -23.9614 -9.9701 -3.9860 -0.0000 2.7309 0.0000 4.8622 -16.8910 -23.3867 15.2918 0.0000 -19.8457 14.6589 -0.4363 1.7381 0.0000 2.3942 -4.0418 2.2584 -5.8834 -39.1530 -10.6103
 -1.4385 -102.9925 34.5962 8.5780 -1.9008 87.0899 -0.9166 7.3376 -9.7683 0.0000 9.2264 24.3621 -0.0603 -0.8491 -0.2260 0.0000 -13.4065 -0.0000 4.5247 8.5011 19.8006 0.0000 8.1052 -31.5146 0.9743 -6.5232 3.7259 0.0000 -4.3614 -0.0000 -0.1993 -3.4056 0.7022 1.3576 30.7267 0.2459 0.1443 -0.0000 -2.9784 14.9976 -25.5391 -13.1601 0.0000 -10.4620 -23.8645 -9.6429 -3.9984 0.0000 2.5353 -0.0000 5.2264 -16.8289 -22.9847 14.8243 0.0000 -20.1096 14.6801 -0.5983 1.7271 -0.0000 2.6337 -4.1364 2.4139 -6.2608 -39.0566 -10.8809
 -1.4385 -102.9925 34.5962 8.5780 -1.9008 87.0899 -0.9166 7.3376 -9.7683 0.0000 9.2264 24.3621 -0.0603 -0.8491 -0.2260 0.0000 -13.4065 -0.0000 4.5247 8.5011 19.8006 0.0000 8.1052 -31.5146 0.9743 -6.5232 3.7259 0.0000 -4.3614 -0.0000 -0.1993 -3.4056 0.7022 1.3576 30.7267 0.2459 0.1443 -0.0000 -2.9784 14.9976 -25.5391 -13.1601 0.0000 -10.4620 -23.8645 -9.6429 -3.9984 0.0000 2.5353 -0.0000 5.2264 -16.8289 -22.9847 14.8243 0.0000 -20.1096 14.6801 -0.5983 1.7271 -0.0000 2.6337 -4.1364 2.4139 -6.2608 -39.0566 -10.8809
 -1.4389 -102.9894 34.5952 8.5726 -1.8995 87.1323 -0.9108 7.3384 -9.8019 -0.0000 9.2181 24.3773 -0.0632 -0.8721 -0.2367 0.0000 -13.4312 -0.0000 4.5234 8.5036 19.7413 0.0000 8.0831 -31.5624 1.0008 -6.4765 3.8271 0.0000 -4.8855 0.0000 -0.2063 -3.3940 0.7210 1.3723 30.7131 0.1793 0.1389 -0.0000 -2.9780 15.0035 -25.5109 -13.0656 -0.0000 -10.5368 -23.5193 -9.7263 -3.6926 0.0000 2.5459 0.0000 5.1941 -16.8205 -23.0318 14.9463 -0.0000 -20.0921 14.6386 -0.4773 1.7385 0.0000 2.6318 -4.0496 2.4366 -6.2451 -39.2086 -10.7790
 -1.4402 -102.9873 34.5948 8.5695 -1.8994 87.1359 -0.9120 7.3395 -9.7974 -0.0000 9.2142 24.3748 -0.0656 -0.8775 -0.2456 0.0000 -13.4237 -0.0000 4.5286 8.5092 19.7740 0.0000 8.1026 -31.5378 0.9781 -6.5875 3.7411 0.0000 -4.5861 0.0000 -0.2078 -3.3928 0.7217 1.3724 30.7090 0.1685 0.1334 -0.0000 -2.9595 14.9918 -25.4934 -13.0772 0.0000 -10.5464 -23.3558 -9.6328 -3.6743 -0.0000 2.5585 0.0000 5.1923 -16.8374 -23.0490 14.9897 -0.0000 -20.0661 14.6434 -0.4073 1.7518 -0.0000 2.6012 -4.0278 2.4455 -6.2019 -39.2359 -10.7439
 -1.4403 -102.9867 34.5950 8.5666 -1.8978 87.1404 -0.9124 7.3391 -9.8047 0.0000 9.2169 24.3792 -0.0705 -0.8840 -0.2643 0.0000 -13.4632 0.0000 4.5299 8.5101 19.8287 0.0000 8.0921 -31.5839 0.9727 -6.5329 3.7200 -0.0000 -4.5831 -0.0000 -0.2038 -3.3698 0.7227 1.3472 30.6878 0.1788 0.1213 -0.0000 -2.9426 14.9926 -25.4839 -13.0422 -0.0000 -10.5343 -23.3284 -9.4905 -3.6715 0.0000 2.5443 0.0000 5.2136 -16.8147 -23.0119 14.9782 0.0000 -20.1183 14.6547 -0.4224 1.8077 -0.0000 2.6346 -4.0373 2.4268 -6.2191 -39.2083 -10.7025
 -1.4403 -102.9867 34.5950 8.5666 -1.8978 87.1404 -0.9124 7.3391 -9.8047 0.0000 9.2169 24.3792 -0.0705 -0.8840 -0.2643 0.0000 -13.4632 0.0000 4.5299 8.5101 19.8287 0.0000 8.0921 -31.5839 0.9727 -6.5329 3.7200 -0.0000 -4.5831 -0.0000 -0.2038 -3.3698 0.7227 1.3472 30.6878 0.1788 0.1213 -0.0000 -2.9426 14.9926 -25.4839 -13.0422 -0.0000 -10.5343 -23.3284 -9.4905 -3.6715 0.0000 2.5443 0.0000 5.2136 -16.8147 -23.0119 14.9782 0.0000 -20.1183 14.6547 -0.4224 1.8077 -0.0000 2.6346 -4.0373 2.4268 -6.2191 -39.2083 -10.7025
 -1.4417 -102.9844 34.5963 8.5638 -1.8985 87.1498 -0.9124 7.3391 -9.8219 0.0000 9.2186 24.3678 -0.0666 -0.8879 -0.2497 0.0000 -13.5345 0.0000 4.5331 8.5145 19.8256 0.0000 8.1045 -31.5647 0.9672 -6.6212 3.6999 -0.0000 -4.6797 -0.0000 -0.2039 -3.3635 0.7373 1.3419 30.6806 0.1759 0.1054 -0.0000 -2.9309 14.9757 -25.4794 -13.0135 0.0000 -10.6150 -22.8771 -9.4286 -3.2341 -0.0000 2.5491 0.0000 5.2112 -16.8242 -23.0240 14.9830 0.0000 -20.1018 14.5559 -0.2806 1.8362 0.0000 2.6402 -4.0009 2.4801 -6.2923 -39.2188 -10.7358
 -1.4414 -102.9833 34.5960 8.5744 -1.8998 87.1728 -0.9122 7.3407 -9.8515 0.0000 9.2448 24.3295 -0.0566 -0.8944 -0.2122 0.0000 -13.5516 0.0000 4.5355 8.5206 19.7575 0.0000 8.1005 -31.5610 0.9792 -6.5513 3.7451 -0.0000 -4.6449 -0.0000 -0.1946 -3.3697 0.7584 1.4040 30.7160 0.0171 0.0963 0.0000 -2.9327 14.9981 -25.4020 -12.8536 0.0000 -10.6874 -22.8978 -9.3363 -3.1912 -0.0000 2.7329 -0.0000 4.9066 -16.9084 -23.3769 15.4408 -0.0000 -19.8800 14.5645 -0.1354 1.8819 -0.0000 2.4522 -3.9173 2.4047 -6.0439 -39.3471 -10.5220
 -1.4449 -102.9805 34.5964 8.5681 -1.8952 87.1547 -0.9241 7.3372 -9.8192 0.0000 9.2584 24.2784 -0.0543 -0.8841 -0.2033 -0.0000 -13.6149 -0.0000 4.5168 8.5219 19.9236 0.0000 8.0597 -31.8254 1.0226 -6.4308 3.9101 -0.0000 -4.9569 -0.0000 -0.1838 -3.3566 0.7655 1.3112 30.6996 0.1917 0.1004 -0.0000 -2.9398 14.9372 -25.4734 -13.1231 0.0000 -10.5736 -22.8768 -8.9332 -3.1745 0.0000 2.5331 0.0000 5.2229 -16.8080 -23.0055 14.9442 -0.0000 -20.1360 14.6588 -0.2950 1.8999 -0.0000 2.6097 -4.0610 2.4719 -6.2537 -39.1369 -10.6992
 -1.4434 -102.9783 34.5964 8.5673 -1.8948 87.1622 -0.9236 7.3370 -9.8249 -0.0000 9.2598 24.2800 -0.0491 -0.8880 -0.1839 0.0000 -13.6060 -0.0000 4.5320 8.5275 19.9196 0.0000 8.0978 -31.7026 0.9751 -6.5647 3.7295 -0.0000 -4.5600 -0.0000 -0.1944 -3.3649 0.7724 1.3230 30.6982 0.1434 0.1051 -0.0000 -2.9503 14.9456 -25.4233 -13.0049 0.0000 -10.6208 -22.7591 -8.8994 -3.0737 -0.0000 2.5542 -0.0000 5.2153 -16.8122 -23.0607 15.0400 -0.0000 -20.0533 14.5791 -0.2603 1.8245 -0.0000 2.6023 -3.9940 2.4855 -6.2382 -39.1625 -10.6423
 -1.4434 -102.9783 34.5953 8.5633 -1.8951 87.1588 -0.9197 7.3370 -9.7953 0.0000 9.2450 24.2659 -0.0543 -0.8975 -0.2035 0.0000 -13.6128 -0.0000 4.5199 8.5231 19.9017 0.0000 8.0559 -31.7414 1.0122 -6.4563 3.8706 -0.0000 -5.0362 -0.0000 -0.1961 -3.3597 0.7802 1.3273 30.7013 0.1306 0.1102 -0.0000 -2.9393 14.9200 -25.4058 -13.0185 0.0000 -10.6276 -22.8202 -8.7005 -3.0428 -0.0000 2.5618 0.0000 5.2054 -16.8195 -23.0902 15.0787 -0.0000 -20.0705 14.5738 -0.2155 1.9287 0.0000 2.5746 -3.9728 2.4775 -6.2132 -39.1917 -10.6048
